<?xml version="1.0" encoding="UTF-8" standalone="no"?>
<!-- Created with Inkscape (http://www.inkscape.org/) -->

<svg
   width="9.6806889mm"
   height="6.4474554mm"
   viewBox="0 0 9.6806885 6.4474554"
   version="1.1"
   id="svg5"
   xml:space="preserve"
   inkscape:version="1.2.1 (9c6d41e410, 2022-07-14)"
   sodipodi:docname="hide_dark.svg"
   xmlns:inkscape="http://www.inkscape.org/namespaces/inkscape"
   xmlns:sodipodi="http://sodipodi.sourceforge.net/DTD/sodipodi-0.dtd"
   xmlns="http://www.w3.org/2000/svg"
   xmlns:svg="http://www.w3.org/2000/svg"><sodipodi:namedview
     id="namedview7"
     pagecolor="#ffffff"
     bordercolor="#000000"
     borderopacity="0.25"
     inkscape:showpageshadow="2"
     inkscape:pageopacity="0.0"
     inkscape:pagecheckerboard="0"
     inkscape:deskcolor="#d1d1d1"
     inkscape:document-units="mm"
     showgrid="false"
     inkscape:zoom="11.602469"
     inkscape:cx="11.2907"
     inkscape:cy="17.410087"
     inkscape:window-width="1920"
     inkscape:window-height="986"
     inkscape:window-x="-11"
     inkscape:window-y="-11"
     inkscape:window-maximized="1"
     inkscape:current-layer="layer1" /><defs
     id="defs2" /><g
     inkscape:label="Шар 1"
     inkscape:groupmode="layer"
     id="layer1"><path
       id="path1069"
       style="fill:#ee9118;fill-opacity:1;stroke-width:0.0189176"
       d="M 4.7728353 0.00051676432 C 4.2895209 0.007664281 3.8077501 0.094877999 3.3543172 0.26096598 C 2.9011916 0.42694131 2.3147694 0.7526515 1.8892904 1.0748698 C 1.3374301 1.4927983 0.76368561 2.0729984 0.32659505 2.6551351 C -0.030315061 3.1304834 -0.05396319 3.1987895 0.062528483 3.4178792 C 0.32107087 3.9041289 0.7804976 4.48287 1.2655558 4.9480184 L 2.7000936 3.9434285 C 2.6256322 3.7179601 2.5879557 3.4776524 2.5879557 3.2225423 C 2.5879557 2.6205202 2.7931268 2.1030493 3.203422 1.6727661 C 3.6482938 1.2062221 4.1992989 0.96996663 4.8405314 0.96996663 C 4.9705891 0.96996663 5.1489664 0.98271629 5.2374064 0.99838867 C 5.6105938 1.0645239 5.9576896 1.2268725 6.2481974 1.4598592 L 7.286377 0.73328857 C 7.140964 0.64583121 6.9919935 0.56429355 6.8362752 0.48782552 C 6.4562942 0.30122947 6.2267415 0.21421647 5.8911133 0.12970785 C 5.5255072 0.037650747 5.1487467 -0.0050423862 4.7728353 0.00051676432 z M 8.3472941 1.5446086 L 6.9809692 2.5011393 C 7.0593435 2.732658 7.0915568 2.9445154 7.0915568 3.2225423 C 7.0915568 3.5010082 7.0590957 3.7125149 6.9804525 3.9444621 C 6.7131769 4.7327413 5.982886 5.3479777 5.1903809 5.4523804 C 4.5156245 5.5412711 3.9218317 5.3831422 3.4333822 4.9852254 L 2.3316406 5.7567546 C 3.0078466 6.1501078 3.7497014 6.3840403 4.5067017 6.4383667 C 4.8869979 6.4656569 5.4353857 6.4296866 5.8239339 6.3515503 C 7.0756685 6.099833 8.2565772 5.308334 9.1591309 4.1165446 C 9.330497 3.8902603 9.5216601 3.5991 9.6180176 3.4178792 C 9.734507 3.1987895 9.7108616 3.1304834 9.353951 2.6551351 C 9.1269366 2.3527877 8.9457163 2.1434656 8.6434001 1.8339966 C 8.5435 1.7317324 8.4450345 1.6359944 8.3472941 1.5446086 z M 4.8405314 2.2133016 A 1.0104488 1.0104488 0 0 0 3.834908 3.1491618 L 5.1164836 2.2520589 A 1.0104488 1.0104488 0 0 0 4.8405314 2.2133016 z M 5.8477051 3.2943726 L 4.5625122 4.194576 A 1.0104488 1.0104488 0 0 0 4.8405314 4.2343669 A 1.0104488 1.0104488 0 0 0 5.8477051 3.2943726 z " /><rect
       style="font-variation-settings:normal;opacity:1;fill:#ee9118;fill-opacity:1;fill-rule:evenodd;stroke-width:3.53089;stroke-linecap:butt;stroke-linejoin:miter;stroke-miterlimit:4;stroke-dasharray:none;stroke-dashoffset:0;stroke-opacity:1;stop-color:#000000;stop-opacity:1"
       id="rect3696"
       width="0.92103171"
       height="9.9267492"
       x="4.9563036"
       y="-7.0798392"
       ry="0.46051586"
       transform="rotate(55.005719)" /></g></svg>
