<?xml version="1.0" encoding="UTF-8" standalone="no"?>
<!-- Created with Inkscape (http://www.inkscape.org/) -->

<svg
   width="9.6806889mm"
   height="6.4474554mm"
   viewBox="0 0 9.680689 6.4474554"
   version="1.1"
   id="svg5"
   xml:space="preserve"
   inkscape:version="1.2.1 (9c6d41e410, 2022-07-14)"
   sodipodi:docname="show.svg"
   xmlns:inkscape="http://www.inkscape.org/namespaces/inkscape"
   xmlns:sodipodi="http://sodipodi.sourceforge.net/DTD/sodipodi-0.dtd"
   xmlns="http://www.w3.org/2000/svg"
   xmlns:svg="http://www.w3.org/2000/svg"><sodipodi:namedview
     id="namedview7"
     pagecolor="#ffffff"
     bordercolor="#000000"
     borderopacity="0.25"
     inkscape:showpageshadow="2"
     inkscape:pageopacity="0.0"
     inkscape:pagecheckerboard="0"
     inkscape:deskcolor="#d1d1d1"
     inkscape:document-units="mm"
     showgrid="false"
     inkscape:zoom="16.408369"
     inkscape:cx="21.635301"
     inkscape:cy="18.64902"
     inkscape:window-width="1920"
     inkscape:window-height="986"
     inkscape:window-x="-11"
     inkscape:window-y="-11"
     inkscape:window-maximized="1"
     inkscape:current-layer="layer1" /><defs
     id="defs2" /><g
     inkscape:label="Шар 1"
     inkscape:groupmode="layer"
     id="layer1"><path
       id="path1069"
       style="fill:#ffa500;fill-opacity:1;stroke-width:0.0189176"
       d="M 4.7727152,4.7821613e-4 C 4.2894003,0.00762574 3.8078106,0.0949132 3.3543773,0.26100135 2.9012512,0.42697684 2.3149632,0.75275589 1.8894837,1.0749745 1.3376229,1.4929034 0.76376834,2.0731942 0.32667734,2.6553315 -0.03023313,3.1306803 -0.05384764,3.1989303 0.06264415,3.4180203 0.38808527,4.0300887 1.0316233,4.7889224 1.6442203,5.2829539 2.4874411,5.962972 3.4833487,6.3649904 4.5068343,6.4384412 4.8871309,6.4657314 5.4354959,6.4294532 5.8240445,6.3513168 7.0757803,6.0995993 8.2564914,5.3084685 9.159046,4.1166779 9.3304123,3.8903934 9.5216983,3.5992412 9.6180559,3.4180203 9.7345454,3.1989303 9.7108963,3.1306803 9.3539854,2.6553315 9.1269708,2.3529838 8.9458201,2.1435857 8.6435036,1.8341164 8.0432049,1.2196121 7.4955868,0.81169894 6.8361356,0.48786449 6.4561542,0.30126825 6.2268089,0.21438024 5.8911803,0.12987153 5.5255739,0.03781434 5.148627,-0.00508094 4.7727152,4.7821613e-4 Z M 4.8403308,0.9697455 c 0.1300578,0 0.3088294,0.0128145 0.3972695,0.0284869 0.8008351,0.1419217 1.4800063,0.7272323 1.7426339,1.5018046 0.078643,0.2319473 0.1112883,0.4438381 0.1112883,0.7223041 0,0.2784662 -0.032645,0.4903199 -0.1112883,0.7222673 C 6.7129584,4.7328884 5.9828121,5.3478853 5.1903062,5.4522881 4.4483543,5.550031 3.8046524,5.3490021 3.2908255,4.8590444 2.8242811,4.4141724 2.5877715,3.8635745 2.5877715,3.2223415 c 0,-0.6020227 0.2055605,-1.1192582 0.6158561,-1.5495418 0.4448722,-0.4665445 0.99547,-0.7030542 1.6367032,-0.7030542 z m 0,1.2435353 A 1.0104488,1.0104488 0 0 0 3.8299028,3.2237087 1.0104488,1.0104488 0 0 0 4.8403308,4.2341732 1.0104488,1.0104488 0 0 0 5.850796,3.2237087 1.0104488,1.0104488 0 0 0 4.8403308,2.2132808 Z" /></g></svg>
